<svg width="755" height="166" viewBox="0 0 755 166" fill="none" xmlns="http://www.w3.org/2000/svg">
<rect width="755" height="166" fill="white"/>
<path d="M50.1919 160.835L15.3564 30.4143L0 28.8678V10.7223H60.3952V28.8678L44.2142 31.2391L61.838 104.233L65.033 117.636H65.6514L69.4647 104.233L99.147 10.7223H121.306L152.122 106.811L155.729 118.667H156.347L159.439 106.811L177.681 31.2391L160.573 28.8678V10.7223H219.834V28.8678L205.508 30.4143L170.261 160.835H143.052L114.607 73.0974L110.999 60.7255H110.381L106.361 73.5098L77.6067 160.835H50.1919Z" fill="black" fill-opacity="0.7"/>
<path d="M266.831 163C256.181 163 246.871 160.663 238.901 155.989C230.931 151.247 224.747 144.751 220.35 136.503C216.021 128.256 213.857 118.839 213.857 108.254V104.13C213.857 93.0643 215.918 83.2699 220.04 74.747C224.163 66.1554 229.969 59.4196 237.458 54.5395C245.016 49.5908 253.914 47.1507 264.152 47.2195C274.252 47.2195 282.737 49.2127 289.608 53.1992C296.479 57.1857 301.701 62.9249 305.274 70.4168C308.847 77.9087 310.633 86.9814 310.633 97.635V114.028H245.085L244.879 114.646C245.291 119.526 246.493 123.891 248.486 127.74C250.547 131.52 253.433 134.51 257.143 136.71C260.853 138.84 265.354 139.906 270.645 139.906C276.141 139.906 281.26 139.218 286.001 137.844C290.811 136.4 295.483 134.304 300.018 131.555L308.16 150.113C303.556 153.824 297.75 156.917 290.742 159.392C283.802 161.797 275.832 163 266.831 163ZM245.291 94.1297H282.497V91.4491C282.497 86.9127 281.878 83.0293 280.642 79.7989C279.474 76.4997 277.55 73.9566 274.87 72.1695C272.259 70.3825 268.858 69.4889 264.667 69.4889C260.682 69.4889 257.315 70.5543 254.567 72.685C251.818 74.747 249.654 77.5994 248.074 81.2422C246.562 84.8851 245.531 89.0091 244.982 93.6142L245.291 94.1297Z" fill="black" fill-opacity="0.7"/>
<path d="M391.435 163C384.564 163 378.689 161.66 373.811 158.979C368.933 156.23 364.844 152.278 361.546 147.123L359.382 160.835H333.41V21.2385L317.435 18.1455V0H363.402V61.1379C366.631 56.6702 370.582 53.2336 375.254 50.828C379.995 48.4223 385.491 47.2195 391.744 47.2195C400.745 47.2195 408.372 49.6595 414.624 54.5395C420.945 59.3508 425.755 66.1554 429.053 74.9532C432.351 83.751 434 94.0953 434 105.986V108.151C434 119.217 432.351 128.874 429.053 137.122C425.755 145.301 420.945 151.659 414.624 156.195C408.303 160.732 400.573 163 391.435 163ZM382.365 139.596C390.061 139.596 395.592 136.882 398.958 131.452C402.325 125.953 404.009 118.186 404.009 108.151V105.986C404.009 98.7004 403.253 92.4457 401.741 87.222C400.298 81.9296 397.997 77.84 394.836 74.9532C391.744 72.0664 387.69 70.623 382.674 70.623C378.14 70.623 374.258 71.6884 371.028 73.8191C367.799 75.9498 365.257 78.8366 363.402 82.4794V129.08C365.463 132.517 368.074 135.129 371.234 136.916C374.464 138.703 378.174 139.596 382.365 139.596Z" fill="black" fill-opacity="0.7"/>
<path d="M460 162V143.971L473.114 141.499L515.656 87.7212L475.592 32.7074L463.407 30.1319V12H522.161V30.1319L507.808 31.4712L533.622 67.5288L559.437 31.4712L545.394 30.1319V12H603.321V30.1319L590.001 32.7074L551.486 85.0426L594.647 141.396L609 143.971V162H548.801V143.971L561.708 142.735L533.829 104.617L505.33 142.735L517.927 143.971V162H460Z" fill="#ED1B65"/>
<path d="M620 161V142.971L635.968 139.88V32.2225L620 29.1319V11H691.084C702.623 11 712.513 12.7857 720.754 16.3571C728.996 19.9286 735.315 25.0453 739.71 31.7074C744.175 38.3695 746.407 46.3709 746.407 55.7115C746.407 64.5027 744.209 72.3668 739.813 79.3036C735.418 86.2404 729.305 91.7006 721.476 95.6841C713.646 99.6676 704.615 101.694 694.381 101.762H666.05V139.88L682.122 142.971V161H620ZM716.531 161L691.29 96.1992L718.385 89.5027L740.225 139.984L753 142.971V161H716.531ZM666.05 78.5824H690.569C699.223 78.5824 705.679 76.7624 709.937 73.1223C714.264 69.4135 716.428 64.0563 716.428 57.0508C716.428 50.114 714.298 44.5852 710.04 40.4643C705.782 36.2747 699.463 34.1799 691.084 34.1799H666.05V78.5824Z" fill="#9829C8"/>
</svg>
