<svg width="382" height="95" viewBox="0 0 382 95" fill="none" xmlns="http://www.w3.org/2000/svg">
<g clip-path="url(#clip0_1_30)">
<rect width="382" height="95" fill="white"/>
<path d="M54.656 26.6L66.304 59.368L68.608 69.992H69.12L70.912 59.24L79.104 26.6H94.336L74.624 91.24H62.336L49.408 55.4L47.744 47.336H47.104L45.568 55.528L33.28 91.24H20.608L0 26.6H18.048L27.392 58.728L28.928 70.12H29.568L31.744 58.6L42.368 26.6H54.656Z" fill="black" fill-opacity="0.7"/>
<path d="M150.645 85.096C148.085 87.144 144.586 88.8933 140.149 90.344C135.797 91.7093 131.146 92.392 126.197 92.392C115.872 92.392 108.32 89.4053 103.541 83.432C98.7623 77.3733 96.373 69.096 96.373 58.6C96.373 47.336 99.061 38.888 104.437 33.256C109.813 27.624 117.365 24.808 127.093 24.808C130.336 24.808 133.493 25.2347 136.565 26.088C139.637 26.9413 142.368 28.3493 144.757 30.312C147.146 32.2747 149.066 34.92 150.517 38.248C151.968 41.576 152.693 45.7147 152.693 50.664C152.693 52.456 152.565 54.376 152.309 56.424C152.138 58.472 151.84 60.6053 151.413 62.824H113.013C113.269 68.2 114.634 72.2533 117.109 74.984C119.669 77.7147 123.765 79.08 129.397 79.08C132.896 79.08 136.01 78.568 138.741 77.544C141.557 76.4347 143.69 75.3253 145.141 74.216L150.645 85.096ZM126.837 38.12C122.485 38.12 119.242 39.4427 117.109 42.088C115.061 44.648 113.824 48.104 113.397 52.456H137.205C137.546 47.848 136.821 44.3067 135.029 41.832C133.322 39.3573 130.592 38.12 126.837 38.12Z" fill="black" fill-opacity="0.7"/>
<path d="M164.445 1H181.085V31.72H181.597C183.389 29.672 185.693 28.0507 188.509 26.856C191.325 25.6613 194.44 25.064 197.853 25.064C205.533 25.064 211.378 27.7093 215.389 33C219.485 38.2053 221.533 46.184 221.533 56.936C221.533 68.456 218.674 77.2027 212.957 83.176C207.325 89.1493 199.56 92.136 189.661 92.136C184.2 92.136 179.208 91.6667 174.685 90.728C170.162 89.8747 166.749 88.8933 164.445 87.784V1ZM192.989 39.144C189.917 39.144 187.4 39.9547 185.437 41.576C183.56 43.112 182.109 45.3733 181.085 48.36V76.264C182.45 76.9467 183.901 77.416 185.437 77.672C187.058 77.928 188.765 78.056 190.557 78.056C195.08 78.056 198.493 76.4347 200.797 73.192C203.186 69.864 204.381 64.616 204.381 57.448C204.381 45.2453 200.584 39.144 192.989 39.144Z" fill="black" fill-opacity="0.7"/>
<path d="M258.52 45.032L233.56 1H254.68L268.504 26.856L271.576 32.944L274.52 26.856L288.984 1H308.056L282.2 44.136L309.336 90.6H288.472L272.728 62.952L269.272 56.48L265.944 62.952L250.072 90.6H231L258.52 45.032Z" fill="#ED1B65"/>
<path d="M315 2.176C316.963 1.83467 319.053 1.536 321.272 1.28C323.576 0.938665 325.837 0.682666 328.056 0.512001C330.36 0.341337 332.579 0.213336 334.712 0.127998C336.845 0.0426661 338.808 0 340.6 0C344.781 0 348.877 0.384 352.888 1.152C356.984 1.92 360.611 3.24267 363.768 5.12C367.011 6.99734 369.571 9.6 371.448 12.928C373.411 16.1707 374.392 20.2667 374.392 25.216C374.392 32.5547 372.685 38.528 369.272 43.136C365.859 47.744 364.293 49.944 358.576 52.736L360.848 56.704L382.328 90.88H362.104L341.752 55.808L332.536 54.144V90.88H315V2.176ZM341.88 15.616C340.088 15.616 338.296 15.6587 336.504 15.744C334.797 15.8293 333.475 16 332.536 16.256V42.24H339.96C344.824 42.24 348.707 41.1307 351.608 38.912C354.509 36.6933 355.96 33.024 355.96 27.904C355.96 24.064 354.765 21.0773 352.376 18.944C349.987 16.7253 346.488 15.616 341.88 15.616Z" fill="#9829C8"/>
</g>
<defs>
<clipPath id="clip0_1_30">
<rect width="382" height="95" fill="white"/>
</clipPath>
</defs>
</svg>
