<svg width="387" height="96" viewBox="0 0 387 96" fill="none" xmlns="http://www.w3.org/2000/svg">
<g clip-path="url(#clip0_1_29)">
<rect width="387" height="96" fill="white"/>
<path d="M44.672 41.96L54.272 69.992H54.912L56.064 58.984L61.312 26.6H76.288L63.36 90.6H46.592L39.424 65.256H38.784L30.72 90.6H13.44L0 26.6H16.64L22.912 62.056L23.936 69.992H24.576L34.048 41.96H44.672Z" fill="black" fill-opacity="0.7"/>
<path d="M144.846 84.816C143.737 85.84 142.286 86.864 140.494 87.888C138.787 88.8267 136.739 89.7227 134.35 90.576C132.046 91.4293 129.486 92.112 126.67 92.624C123.854 93.136 120.867 93.392 117.71 93.392C112.249 93.392 107.342 92.624 102.99 91.088C98.7233 89.552 95.0967 87.3333 92.11 84.432C89.1233 81.4453 86.8193 77.904 85.198 73.808C83.662 69.6267 82.894 64.8907 82.894 59.6C82.894 53.968 83.79 49.0613 85.582 44.88C87.374 40.6133 89.806 37.072 92.878 34.256C96.0353 31.44 99.7047 29.3493 103.886 27.984C108.067 26.5333 112.59 25.808 117.454 25.808C120.697 25.808 124.025 26.2347 127.438 27.088C130.937 27.9413 134.137 29.4347 137.038 31.568C139.939 33.616 142.286 36.3893 144.078 39.888C145.955 43.3867 146.894 47.824 146.894 53.2C146.894 56.8693 146.467 60.8373 145.614 65.104H99.534C99.6193 67.8347 100.174 70.1387 101.198 72.016C102.307 73.8933 103.715 75.4293 105.422 76.624C107.214 77.8187 109.219 78.7147 111.438 79.312C113.742 79.824 116.174 80.08 118.734 80.08C123.854 80.08 128.035 79.4827 131.278 78.288C134.606 77.0933 137.294 75.6427 139.342 73.936L144.846 84.816ZM117.198 39.12C114.979 39.12 112.889 39.4187 110.926 40.016C108.963 40.6133 107.171 41.5093 105.55 42.704C104.014 43.8133 102.734 45.2213 101.71 46.928C100.686 48.6347 100.089 50.5547 99.918 52.688H131.406C131.406 48.5067 130.211 45.2213 127.822 42.832C125.518 40.3573 121.977 39.12 117.198 39.12Z" fill="black" fill-opacity="0.7"/>
<path d="M151.58 2H178.076V32.72H178.588C180.38 30.672 182.769 29.0507 185.756 27.856C188.828 26.6613 192.583 26.064 197.02 26.064C205.468 26.064 212.209 28.7093 217.244 34C222.364 39.2907 224.924 47.2693 224.924 57.936C224.924 63.6533 224.071 68.7307 222.364 73.168C220.657 77.52 218.225 81.1893 215.068 84.176C211.996 87.0773 208.199 89.296 203.676 90.832C199.239 92.368 194.204 93.136 188.572 93.136C181.916 93.136 176.327 92.368 171.804 90.832C167.367 89.296 163.911 87.76 161.436 86.224V16.08H151.58V2ZM192.412 40.144C191.217 40.144 189.895 40.3573 188.444 40.784C186.993 41.2107 185.585 41.808 184.22 42.576C182.94 43.344 181.703 44.3253 180.508 45.52C179.399 46.6293 178.588 47.9093 178.076 49.36V75.984C179.441 76.6667 181.319 77.3493 183.708 78.032C186.097 78.7147 188.657 79.056 191.388 79.056C193.607 79.056 195.697 78.672 197.66 77.904C199.708 77.0507 201.457 75.7707 202.908 74.064C204.444 72.3573 205.639 70.224 206.492 67.664C207.345 65.104 207.772 62.032 207.772 58.448C207.772 52.3893 206.449 47.824 203.804 44.752C201.244 41.68 197.447 40.144 192.412 40.144Z" fill="black" fill-opacity="0.7"/>
<path d="M266.264 44.648L240.92 1H261.4L274.456 25.32L277.4 31.848L280.216 25.32L293.528 1H313.368L287.64 44.776L314.136 90.6H293.656L279.96 65L276.504 58.088L273.176 65L258.84 90.6H239L266.264 44.648Z" fill="#ED1B65"/>
<path d="M321 2.176C322.963 1.83467 325.053 1.536 327.272 1.28C329.576 0.938665 331.837 0.682666 334.056 0.512001C336.36 0.341337 338.579 0.213336 340.712 0.127998C342.845 0.0426661 344.808 0 346.6 0C350.781 0 354.877 0.426666 358.888 1.28C362.984 2.048 366.611 3.41333 369.768 5.376C373.011 7.33867 375.571 9.984 377.448 13.312C379.411 16.64 380.392 20.7787 380.392 25.728C380.392 29.3973 380.008 32.5973 379.24 35.328C378.557 37.9733 377.576 40.32 376.296 42.368C375.016 44.416 373.437 46.208 371.56 47.744C369.768 49.1947 367.805 50.5173 365.672 51.712L387.304 90.88H367.08L349.032 55.808H338.536V90.88H321V2.176ZM347.88 15.616C346.088 15.616 344.296 15.6587 342.504 15.744C340.797 15.8293 339.475 16 338.536 16.256V42.24H345.448C350.312 42.24 354.28 41.1307 357.352 38.912C360.424 36.6933 361.96 33.024 361.96 27.904C361.96 24.064 360.765 21.0773 358.376 18.944C355.987 16.7253 352.488 15.616 347.88 15.616Z" fill="#9829C8"/>
</g>
<defs>
<clipPath id="clip0_1_29">
<rect width="387" height="96" fill="white"/>
</clipPath>
</defs>
</svg>
